<mxfile host="app.diagrams.net" modified="2024-02-25T12:21:21.223Z" agent="Mozilla/5.0 (Windows NT 10.0; Win64; x64) AppleWebKit/537.36 (KHTML, like Gecko) Chrome/122.0.0.0 Safari/537.36" version="23.1.6" etag="30_IJK82c4JJMLoVqqG3" type="github">
  <diagram name="Page-1" id="EuHlI5bFd6zZwjnbJujz">
    <mxGraphModel>
      <root>
        <mxCell id="0" />
        <mxCell id="1" parent="0" />
      </root>
    </mxGraphModel>
  </diagram>
</mxfile>
